<?xml version="1.0" encoding="UTF-8" standalone="no"?>
<svg
   xmlns:dc="http://purl.org/dc/elements/1.1/"
   xmlns:cc="http://creativecommons.org/ns#"
   xmlns:rdf="http://www.w3.org/1999/02/22-rdf-syntax-ns#"
   xmlns:svg="http://www.w3.org/2000/svg"
   xmlns="http://www.w3.org/2000/svg"
   xmlns:xlink="http://www.w3.org/1999/xlink"
   xmlns:sodipodi="http://sodipodi.sourceforge.net/DTD/sodipodi-0.dtd"
   xmlns:inkscape="http://www.inkscape.org/namespaces/inkscape"
   width="16"
   height="16"
   fill="currentColor"
   class="bi bi-thermometer-half"
   viewBox="0 0 20 20"
   version="1.1"
   id="svg885"
   sodipodi:docname="icon.svg"
   inkscape:version="1.0.2 (e86c870879, 2021-01-15)">
  <metadata
     id="metadata891">
    <rdf:RDF>
      <cc:Work
         rdf:about="">
        <dc:format>image/svg+xml</dc:format>
        <dc:type
           rdf:resource="http://purl.org/dc/dcmitype/StillImage" />
      </cc:Work>
    </rdf:RDF>
  </metadata>
  <defs
     id="defs889">
    <linearGradient
       inkscape:collect="always"
       id="linearGradient2825-6">
      <stop
         style="stop-color:#de6161;stop-opacity:1"
         offset="0"
         id="stop2829" />
      <stop
         style="stop-color:#2657eb;stop-opacity:1"
         offset="1"
         id="stop2831" />
    </linearGradient>
    <filter
       inkscape:collect="always"
       style="color-interpolation-filters:sRGB"
       id="filter2902"
       x="-0.074524889"
       width="1.1490498"
       y="-0.074524889"
       height="1.1490498">
      <feGaussianBlur
         inkscape:collect="always"
         stdDeviation="0.62104074"
         id="feGaussianBlur2904" />
    </filter>
    <radialGradient
       inkscape:collect="always"
       xlink:href="#linearGradient2825-6"
       id="radialGradient2908"
       cx="17.403004"
       cy="-0.36522925"
       fx="17.403004"
       fy="-0.36522925"
       r="11.490498"
       gradientUnits="userSpaceOnUse"
       gradientTransform="matrix(-1.4960459,2.5141635,-5.1143793,-3.0432964,41.570775,-45.230725)" />
  </defs>
  <sodipodi:namedview
     pagecolor="#ffffff"
     bordercolor="#666666"
     borderopacity="1"
     objecttolerance="10"
     gridtolerance="10"
     guidetolerance="10"
     inkscape:pageopacity="0"
     inkscape:pageshadow="2"
     inkscape:window-width="1500"
     inkscape:window-height="920"
     id="namedview887"
     showgrid="false"
     inkscape:zoom="40.9375"
     inkscape:cx="11.54771"
     inkscape:cy="8.0793893"
     inkscape:window-x="0"
     inkscape:window-y="0"
     inkscape:window-maximized="1"
     inkscape:current-layer="svg885" />
  <rect
     style="fill:url(#radialGradient2908);fill-opacity:1;stroke-width:3.75;opacity:1;filter:url(#filter2902)"
     id="rect893"
     width="20"
     height="20"
     x="0"
     y="0" />
  <path
     d="M 11.5,14.375 A 1.5,1.5 0 1 1 9.5,12.96 V 8.375 a 0.5,0.5 0 0 1 1,0 v 4.585 a 1.5,1.5 0 0 1 1,1.415 z"
     id="path881"
     style="fill:#ffffff" />
  <path
     d="m 7.5,4.375 a 2.5,2.5 0 0 1 5,0 v 7.55 a 3.5,3.5 0 1 1 -5,0 z m 2.5,-1.5 a 1.5,1.5 0 0 0 -1.5,1.5 v 7.987 l -0.167,0.15 a 2.5,2.5 0 1 0 3.333,0 L 11.5,12.362 V 4.375 A 1.5,1.5 0 0 0 10,2.875 Z"
     id="path883"
     style="fill:#ffffff" />
</svg>
